<?xml version="1.0" encoding="UTF-8"?>
<!DOCTYPE svg PUBLIC "-//W3C//DTD SVG 1.1//EN" "http://www.w3.org/Graphics/SVG/1.1/DTD/svg11.dtd">
<svg width="100%" height="100%" viewBox="0 0 2560 1440" version="1.1" xmlns="http://www.w3.org/2000/svg" xmlns:xlink="http://www.w3.org/1999/xlink" xml:space="preserve" style="fill-rule:evenodd;clip-rule:evenodd;stroke-linecap:round;stroke-linejoin:round;stroke-miterlimit:1.5;">
    <g>
        <path id="GO.2e.23.2e.Central" d="M1375.23,566.287l26.694,0.485l3.883,-3.397l16.987,-0.728l19.9,-18.928l9.464,-2.912l9.706,-0.486l4.126,-3.64l0.728,-15.289l15.288,-12.133l18.686,0.242l0,34.218l7.28,10.192l15.046,0.485l8.494,7.523l18.443,0l7.28,-6.31l6.309,0l8.738,8.736l38.584,35.188l0,8.494l29.606,0l11.406,11.648l0.242,13.105l-45.38,75.229l0,9.707l-4.125,8.493l0,14.803l-8.251,3.64l-25.724,0l-21.597,-29.363l0,-8.98l-35.673,0l-9.95,7.767l-6.794,0l-24.268,-18.929l-33.975,0l-4.853,4.61l-6.795,0l-24.752,-14.802l-7.767,-0.486l-4.61,4.126l0,17.714l6.066,12.863l0,17.229l-19.413,0l-28.636,-33.004l-11.891,0l0,44.41l-36.401,0l-16.501,8.494l-12.62,0l-17.23,7.766l-49.505,0l0,-33.975l-4.853,-5.096l0,-17.472l11.89,-29.849l18.444,-18.93l0.971,-9.706l12.861,-17.958l26.936,-41.497l2.914,-4.368l55.086,0l15.046,9.221l26.937,0l3.883,-0.242l0,-23.298l3.64,-4.61" style="fill:#ccc;stroke:#ccc;stroke-width:0.67px;"/>
        <path id="GO.2e.23.2e.Sudeste" d="M1762.89,337.597l10.691,9.207l16.629,0l10.098,-5.643l11.581,9.503l19.304,-0.593l11.581,-4.752l6.831,-2.97l25.241,-0.594l1.783,17.224l25.241,1.782l0.595,10.691l-6.236,16.927l-2.971,11.878l-3.86,5.94l-16.63,3.563l-7.424,1.188l-0.594,10.097l4.158,14.255l-2.376,5.048l-4.158,2.971l-5.049,0.89l-3.267,-0.89l-3.562,-5.05l-1.783,-3.266l-6.236,0.89l-3.267,4.159l-7.721,2.375l0,4.158l71.867,125.618l15.145,1.188l18.709,-21.976l3.563,-11.583l5.049,-16.332l7.127,-10.395l3.267,-6.236l0,-22.569l10.394,-22.867l8.315,0l32.667,24.648l0.296,15.146l-25.242,0.594l-23.164,34.151l0.595,9.207l22.569,-2.376l6.236,-2.971l28.212,0l0.594,19.304l-21.679,0l-6.236,2.375l-14.255,3.564l-12.174,2.078l-7.722,3.267l-17.818,4.455l-9.503,2.673l-5.643,3.563l-11.284,19.006l-23.164,34.448l-4.752,13.364l-6.533,10.691l0,32.667l-57.351,56.898l-19.462,23.231l-10.255,0l-0.419,15.487l35.996,51.693l17.162,0.628l0,14.44l15.068,21.765l11.51,0.838l4.814,-2.303l5.86,-0.209l3.977,3.977l-0.419,40.809l-8.162,11.93l0,6.906l16.533,0l0,20.51l-7.116,9.626l0.064,7.516l34.611,15.078l18.972,9.964l3.138,3.81l0,11.434l13.899,0l2.691,-8.519l9.64,0l19.278,17.709l0,9.191l-8.518,7.623l-17.262,-0.674l-40.8,57.166l-21.521,0.224l-7.397,-3.363l-44.611,-23.763l0.224,-4.932l32.953,-26.004l4.036,-2.241l34.523,-0.673l0,-36.988l-35.196,-17.935l-30.039,51.336l-13.9,0.224l-4.034,3.587l-8.519,1.121l-5.156,3.811l-5.828,2.914l-4.26,3.811l-4.035,4.484l0,47.525l-2.466,4.035l-6.276,0.224l-71.064,-68.821l-18.158,-10.312l-6.725,-1.122l-21.969,-15.02l-24.884,-19.726l-7.622,-3.139l-22.642,0l-21.968,-3.139l-26.678,-3.586l0,-10.536l17.934,-4.932l-0.448,-11.658l-14.123,-7.397l-0.224,-6.277l8.295,-8.295l0,-19.727l40.126,-35.868l0.448,-31.609l7.847,-7.397l-0.224,-15.916l0.672,-36.318l-22.865,-45.73l-0.224,-23.987l38.109,-64.339l19.055,-26.901l20.848,-33.851l17.486,-23.313l37.212,-49.543l0,-139.437l6.502,-20.624l9.302,-19.091l0,0Z" style="fill:#ccc;stroke:#fff;stroke-width:0.67px;"/>
        <path id="GO.2e.23.2e.Norte" d="M1464.39,23.36l0,28.591l-4.308,8.224l-2.742,25.066l0,10.575l-1.174,12.532l-1.176,9.4l0,7.833l0.784,10.575l-2.35,3.524l-7.442,-0.783l-6.266,0l-3.525,-3.916l-4.308,-6.266l-1.959,-3.134l-3.916,-2.35l-5.092,-0.783l-2.741,3.916l-4.7,4.308l-0.783,5.484l0,6.657l3.916,4.7l5.483,4.308l3.525,3.134l0.784,6.658l0,3.524l-1.176,4.31l-2.741,3.132l-1.959,4.309l1.176,5.091l3.916,3.525l3.916,3.916l2.743,4.308l-2.351,4.308l-3.133,3.525l-3.916,1.959l-2.741,-1.567l-5.484,-2.741l-5.483,-3.133l-5.092,-1.567l-6.265,0l-7.051,-0.392l-3.916,4.308l-6.267,5.092l-3.916,7.833l-1.566,5.091l1.174,5.484l3.134,4.699l4.308,3.133l6.266,3.917l5.483,3.916l5.875,3.526l6.658,7.441l1.175,5.483l-1.567,5.092l-3.525,5.09l-4.308,5.484l-1.957,4.308l-0.392,5.875l0.782,7.049l4.308,6.267l5.092,5.092l5.092,3.524l4.7,-0.783l2.742,-3.917l4.308,-3.132l3.133,-5.092l3.916,-7.441l3.525,-5.875l1.175,-7.833l0,-7.834l-2.741,-6.266l-0.784,-6.658l-0.783,-6.266l3.525,-6.659l3.916,-5.483l4.7,-7.833l3.916,-4.7l6.659,0l7.833,-0.391l5.483,0.391l1.567,9.4l3.916,6.267l4.7,6.266l0.392,5.091l0.392,3.917l4.698,3.526l3.918,2.741l3.916,0l12.533,-13.316l4.308,-1.959l1.567,5.091l-0.784,5.092l-4.699,4.308l-5.484,5.092l-3.916,2.741l-0.784,10.575l1.176,5.483l5.091,6.658l3.133,4.308l4.7,6.267l3.525,3.524l3.916,4.7l3.134,5.875l2.741,4.309l0.392,6.265l1.567,12.534l0,6.658l4.7,7.442l3.133,5.482l5.483,7.834l5.874,7.441l12.924,2.349l1.959,-5.874l-0.783,-10.183l-5.484,-7.049l-5.874,-8.226l-3.916,-5.482l0.392,-8.226l3.524,-5.874l4.7,-8.224l5.874,-2.351l5.092,1.567l0.783,7.833l0.392,5.875l3.133,4.7l11.358,0l8.617,0.392l4.699,0l0,5.09l-5.875,2.742l-0.391,7.441l1.175,5.092l3.133,6.267l4.7,5.09l6.658,1.567l9.792,0.392l7.049,-0.783l3.916,-2.741l8.617,-4.309l5.091,-3.916l4.308,0l5.092,1.566l2.741,4.7l3.526,5.483l6.657,4.308l4.7,2.351l8.225,1.566l7.832,-0.784l7.834,0l4.7,-1.174l2.35,-5.483l1.958,-3.917l-4.308,-7.442l-5.091,-3.916l-5.876,-5.484l-6.265,-5.874l-0.784,-6.266l-0.783,-5.092l19.583,-19.582l2.349,-4.7l0.392,-7.05l-2.351,-3.525l-7.049,-2.741l-12.141,-3.526l-5.875,-4.308l-3.133,-1.566l-3.526,-1.567l-3.916,-1.567l-2.741,-7.049l0.783,-5.092l6.266,-5.483l6.267,-4.308l7.049,-2.741l7.834,-1.567l9.4,1.175l2.349,-6.267l1.959,-16.057l-3.526,-7.049l-3.916,-3.918l0.392,-3.916l4.308,-5.482l7.834,-3.526l5.09,0.783l4.308,3.917l6.659,5.875l7.441,6.657l5.483,4.31l5.092,5.482l9.008,0l5.483,-0.784l1.958,-4.698l9.791,0l10.575,0.39l3.525,0.784l4.7,6.658l-2.351,3.917l-5.874,4.7l-2.35,6.657l0,5.092l3.134,5.875l3.916,5.875l2.741,5.482l-0.783,10.575l-0.784,14.492l-0.782,6.265l-3.916,10.575l-3.526,7.051l-7.441,8.616l-7.833,7.441l-2.699,9.084l-5.94,10.483l-3.144,13.976l-5.94,29.002l-0.351,19.567l-1.048,9.784l0,8.036l0.699,13.279l0,15.722l2.447,44.027l-6.988,13.628l-49.967,64.641l-2.447,5.242l-0.349,9.434l-1.048,4.192l-20.267,0.35l-2.794,-8.735l-3.146,-4.543l-13.626,0l-2.446,4.194l-4.193,0.349l-6.639,-0.349l-2.796,-4.892l-40.182,-37.388l-9.218,-3.506l-6.829,-3.129l-10.813,0.853l-4.554,2.846l-3.984,0l-3.7,-0.854l-1.137,-9.676l-0.855,-3.129l-15.65,-0.855l-2.846,5.407l-4.553,2.847l-2.561,-0.855l-1.139,-23.049l0.569,-11.952l-5.122,-4.838l-5.407,-4.269l-18.212,-0.284l-24.757,14.797l-1.904,14.227l-1.555,3.779l-8.668,1.333l-10.889,-0.445l-12.446,21.557l-8.221,2.667l-10.891,-0.223l-10.444,-0.667l-18.001,0.223l-18.616,21.373l-2.511,3.138l-9.201,1.881l-8.576,-1.255l-5.437,-3.554l-10.458,-5.439l-27.608,-0.419l-3.973,0l-0.209,-11.502l10.248,-12.967l1.045,-26.772l-16.937,-3.273l-0.459,-8.724l5.74,-2.984l1.836,-5.282l1.148,-16.07l6.428,-4.82l0.689,-33.519l-14.204,-34.123l-0.342,-18.688l25.633,-34.138l10.508,-14.011l3.503,-12.1l5.732,-9.872l0.956,-9.552l-10.191,-12.1l-6.049,-5.096l0.236,-34.123l7.196,-11.052l0.257,-11.824l-27.245,-45.752l-10.282,-7.71l-8.225,-2.571l-11.824,-0.515l-12.337,0.772l-21.848,22.876l-7.455,-0.257l-22.361,-29.303l0.001,-13.012l30.504,-32.937l5.024,-7.177l5.383,-11.842l6.1,-13.278l2.153,-3.23l24.044,-0.717l1.795,-9.331l8.253,-1.077l5.024,2.872l3.229,5.024l8.614,3.229l3.229,-0.717l23.685,-33.016l7.536,-8.253l1.795,-4.307l4.664,-2.871l2.153,-8.972l8.255,0l7.177,4.666l6.1,3.948l5.742,1.794l6.46,2.512l2.512,5.383l-0.359,8.971l-1.077,10.408l0,6.458l-34.451,28.351l0,13.277l0.36,4.307l15.431,0l3.229,-3.589l6.101,0l5.383,0.36l1.795,5.741l17.225,0l12.2,-18.303l4.665,-11.124l6.102,-10.048l0.717,-16.508l-5.024,-1.076l-0.359,-11.484l42.346,-36.604l9.872,-0.969" style="fill:#ccc;stroke:#ccc;stroke-width:0.67px;"/>
        <path id="GO.2e.23.2e.Sul" d="M1395.81,695.427l26.387,15.037l15.607,0l13.618,-7.377l14.755,0l24.685,22.984l19.578,0l12.485,-11.918l16.172,0l3.405,19.011l7.378,10.215l11.633,8.794l48.236,0l1.985,11.918l3.406,13.904l9.646,21.28l-0.566,11.065l-1.136,6.809l2.554,13.336l-5.958,15.606l0,19.578l-23.267,26.388l-12.201,0.567l-7.944,-0.567l0,36.035l-7.378,11.065l0,14.187l8.512,1.987l-6.809,6.242l-15.889,11.35l-25.82,0l-2.839,-8.23l-13.051,0.568l-11.633,-3.121l-11.917,-8.228l-7.946,-12.485l-3.972,-3.12l-3.972,-0.284l-3.121,1.134l-8.512,23.267l-3.405,10.215l-4.256,19.294l-12.768,0l-11.066,7.376l-30.077,0l-13.335,26.672l-6.526,0l-46.534,-80.865l-3.688,-6.809l-2.837,-19.011l-4.256,-18.727l-3.405,-16.741l-1.703,-19.011l0,-39.438l13.336,-22.132l2.271,-8.512l0,-30.644l11.349,-11.066l0,-30.644l26.671,26.104l30.36,0l0,-37.453l-6.242,-15.605" style="fill:#ccc;stroke:#ccc;stroke-width:0.67px;"/>
        <path id="GO.2e.23.2e.Sudoeste" d="M1196.48,775.233l64.416,0l4.772,-5.665l4.174,-2.387l3.579,2.387l2.981,4.473l11.631,0l14.315,-16.701l19.086,0l0,33.401l-14.613,33.103l-0.596,56.661l3.877,4.772l0,24.156l7.754,27.735l45.925,83.203l4.176,5.965l0,7.157l-14.613,8.35l-8.648,2.385l-8.648,0l-19.982,-10.437l-38.172,0l-35.19,18.192l-73.66,0l-5.667,-4.474l-20.279,0l-85.589,73.064l-8.351,20.875l-5.368,25.051l-6.262,27.138l-5.07,28.63l-7.456,39.365l-2.981,11.928l-17.297,17.297l-5.07,23.262l-5.666,17.893l-5.964,22.367l-3.878,20.577l-3.876,8.945l-40.857,36.682l-7.157,-0.298l0,-7.754l7.456,-11.631l-0.895,-10.736l-22.367,-22.664l-4.473,-7.456l0,-22.068l-25.945,-19.683l-1.192,-12.824l-3.282,-40.258l10.736,-15.508l0.598,-12.526l-30.122,-30.12l-0.297,-18.788l8.648,-7.157l9.841,0l21.771,26.541l1.789,9.246l29.226,1.789l38.768,-44.435l3.578,-1.789l0,-18.491l-37.277,-72.169l-24.453,-3.28l-28.332,-37.277l-0.596,-8.052l25.349,-25.946l0.297,-15.209l-10.437,-8.947l-0.299,-36.978l11.334,-7.755l19.566,0.303l4.254,-11.814l4.53,0l10.066,-0.58l0.58,-11.42l37.548,-22.064l46.064,-30.193l36.773,-18.58l31.548,-16.064l21.676,-7.355l7.161,-0.58l0.194,-11.613l-7.742,-14.129l0,-22.258l24.58,-16.064l6,-0.386l5.42,6.966l10.644,0.775l10.066,-11.032l9.482,0l0,20.903l6.39,2.058" style="fill:#ccc;stroke:#ccc;stroke-width:0.67px;"/>
        <path id="GO.2e.23.2e.Oeste" d="M886.297,497.6l25.494,-19.055l15.192,-13.905l8.497,-1.031l14.679,-7.982l10.557,-6.952l12.36,-1.031l14.677,-2.832l0.259,-10.815l21.629,-22.918l8.756,0l41.974,57.166l22.145,0l15.192,10.043l7.468,15.449l14.677,0l0,10.559l-14.162,0l-7.726,7.209l0.516,5.666l51.5,0l0,13.648l-9.012,8.497l0,19.313l9.012,22.403l16.224,0l14.935,-6.952l10.3,0l6.437,4.635l12.619,0l19.569,-15.966l14.936,0l30.643,-30.385l14.679,0l0,9.785l-17.254,30.9l-54.076,68.754l-4.12,11.845l-14.42,22.145l-5.15,14.936l-12.618,16.995l0,14.679l3.09,9.526l-0.772,7.211l-9.271,4.892l-11.329,0l-18.283,1.031l-29.356,21.63l0,42.231l-64.376,35.02l-81.887,49.699l-38.884,21.888l-19.569,16.222l-16.481,0l-17.252,-23.176l-16.996,0l0,23.176l-13.132,0l-15.194,29.356l-57.938,0l-10.3,7.21l-11.588,0.773l-4.12,-4.377l6.953,-10.302l84.719,-69.525l40.685,0l0.773,-8.499l20.343,-25.492l0,-48.153l-7.211,-4.636l-12.36,-2.575l-13.905,-4.634l-6.18,-3.606l-18.797,0l-34.248,40.171l0,34.505l-8.24,4.636l-10.559,3.347l-5.665,3.091l-46.094,0l-13.904,11.845l-21.116,0l-0.514,-6.696l10.814,-11.845l0,-8.498l-22.66,-15.45l0,-36.566l15.451,-11.588l0,-14.934l-3.863,-7.983l0,-6.952l27.295,-15.451l0,-18.282l-31.157,-19.314l-41.202,0l-33.99,25.751l0,-63.347l49.184,-36.05l32.96,-29.355l14.936,-7.725l7.209,-2.576l19.056,0l11.845,9.528l0,23.948l30.128,21.888l0,11.33l-4.378,7.983l-20.6,0l-18.54,19.571l0,12.36l17.253,18.282l29.612,0l15.451,6.438l34.248,0l5.665,-24.72l9.785,-10.3l5.15,-28.327l-11.072,-12.875l0,-10.042l-20.086,-11.331l0,-21.888l6.438,-20.857l15.45,-18.283l7.983,-14.163l0,-15.965l-11.331,-1.803l0.772,-7.468l19.314,-1.029l13.905,0l1.545,-32.704Z" style="fill:#ccc;stroke:#ccc;stroke-width:0.67px;"/>
        <path id="GO.2e.23.2e.Noroeste" d="M1170.31,238.747l7.778,-2.9l10.284,0l42.454,27.16l27.95,0l53,44.957l0,32.565l-38.365,45.882l0,29.137l14.767,30.324l0,28.741l-18.723,41.531l-19.776,23.204l-17.799,11.601l-19.249,10.548l-6.856,4.615l-8.173,0l-7.12,-6.328l-11.998,0l-13.052,9.888l-9.493,0l0,-10.68l-4.877,-3.955l0,-11.866l11.205,-13.843l0,-23.6l-24.917,0l-15.426,-20.04l-11.866,-11.865l-18.59,-13.316l-18.985,-7.911l-9.229,-1.055l-59.066,-69.349l0,-13.184l10.811,-19.381l0,-15.294l-11.733,-6.856l-11.998,0l-12.261,8.57l-53.264,0l-8.835,-5.802l-26.764,0l-4.086,4.483l-11.866,0l0,-30.455l11.075,-3.692l29.928,0l8.701,7.515l29.006,0l0,-18.985l-40.344,-34.147l-4.746,-4.615l-19.117,0l-10.02,8.175l-7.384,-0.396l-5.009,-10.416l0.658,-8.569l14.239,-10.548l0,-17.007l-22.149,-25.577l0,-13.448l24.918,-5.934l5.406,-2.9l10.942,0l11.207,7.119l30.06,0l0,18.721l-21.095,20.436l0,11.339l9.626,6.46l25.049,0l16.876,15.293l0,42.059l19.513,0l22.282,-23.6l7.909,-7.911l0,-23.994l8.043,0l7.12,5.668l11.47,0l6.987,-13.448l11.999,0l14.633,12.525l16.085,0l4.087,-17.008l22.149,0l7.384,-22.281l11.075,0l12.129,11.866l0,13.184l-3.692,9.362l0,13.71l3.034,4.483l0,29.665l15.557,0l0.527,-38.63l0,0Z" style="fill:#ccc;stroke:#ccc;stroke-width:0.67px;"/>
    </g>
</svg>